<?xml version="1.0" encoding="UTF-8"?><svg id="Layer_2" xmlns="http://www.w3.org/2000/svg" xmlns:xlink="http://www.w3.org/1999/xlink" viewBox="0 0 315.44 83.22"><defs><style>.cls-1{fill:url(#linear-gradient);}.cls-1,.cls-2,.cls-3,.cls-4,.cls-5{stroke-width:0px;}.cls-2{fill:#fff;}.cls-3{fill:url(#linear-gradient-2);}.cls-4{fill:url(#linear-gradient-3);}.cls-5{fill:url(#linear-gradient-4);}</style><linearGradient id="linear-gradient" x1="20.12" y1="40.43" x2="20.12" y2=".55" gradientUnits="userSpaceOnUse"><stop offset="0" stop-color="#909090"/><stop offset=".02" stop-color="#a5a5a5"/><stop offset=".05" stop-color="#c1c1c1"/><stop offset=".09" stop-color="#d8d8d8"/><stop offset=".13" stop-color="#e9e9e9"/><stop offset=".18" stop-color="#f5f5f5"/><stop offset=".25" stop-color="#fcfcfc"/><stop offset=".42" stop-color="#fff"/></linearGradient><linearGradient id="linear-gradient-2" x1="43.02" y1="20.08" x2="83.26" y2="20.08" xlink:href="#linear-gradient"/><linearGradient id="linear-gradient-3" x1="63.14" y1="43.64" x2="63.14" y2="82.24" xlink:href="#linear-gradient"/><linearGradient id="linear-gradient-4" x1="39.49" y1="63.14" x2="1.75" y2="63.14" xlink:href="#linear-gradient"/></defs><g id="Layer_1-2"><path class="cls-1" d="M26.12,40.16H0l27.48-12.76L40.2,0l.03,26.03c.01,7.8-6.31,14.14-14.12,14.14Z"/><path class="cls-3" d="M57.14,40.16h26.12s-27.48-12.76-27.48-12.76L43.06,0l-.03,26.03c-.01,7.8,6.31,14.14,14.12,14.14Z"/><path class="cls-4" d="M57.14,43.06h26.12l-27.48,12.76-12.72,27.4-.03-26.03c-.01-7.8,6.31-14.14,14.12-14.14Z"/><path class="cls-5" d="M26.12,43.06H0s27.48,12.76,27.48,12.76l12.72,27.4.03-26.03c.01-7.8-6.31-14.14-14.12-14.14Z"/><path class="cls-2" d="M128.76,59.82v8.58h-31.19V13.82h8.97v46h22.22Z"/><path class="cls-2" d="M134.6,50.3V13.82h8.97v35.94c0,6.39,3.66,10.92,11.69,10.92s11.7-4.52,11.7-10.92V13.82h8.97v36.49c0,11.77-8.73,19.1-20.66,19.1s-20.66-7.33-20.66-19.1Z"/><path class="cls-2" d="M238.3,68.39h-8.97V29.49l-16.61,27.44h-1.09l-16.61-27.52v38.98h-8.97V13.82h9.67l16.45,27.29,16.53-27.29h9.59v54.58Z"/><path class="cls-2" d="M257.89,13.82v54.58h-8.97V13.82h8.97Z"/><path class="cls-2" d="M301.95,57.4h-23.23l-3.82,10.99h-9.75l19.8-54.58h10.76l19.73,54.58h-9.67l-3.82-10.99ZM298.99,48.98l-8.65-24.64-8.65,24.64h17.31Z"/></g></svg>