<svg width="18" height="18" viewBox="0 0 18 18" fill="none" xmlns="http://www.w3.org/2000/svg">
<path fill-rule="evenodd" clip-rule="evenodd" d="M8.17616 0.506454C8.33247 0.698191 8.36182 0.963773 8.25113 1.18501C7.64745 2.39159 7.37554 3.73701 7.46325 5.08333C7.55097 6.42964 7.99517 7.72841 8.7503 8.84646C9.50543 9.96451 10.5443 10.8616 11.7605 11.4458C12.9745 12.029 14.3216 12.2794 15.6641 12.1714C16.0501 12.1311 16.4326 12.0625 16.8085 11.9661C17.0463 11.9052 17.2979 11.9882 17.4527 12.1789C17.6075 12.3695 17.6371 12.6328 17.5286 12.8531C16.8619 14.2057 15.8571 15.363 14.6115 16.213C13.3659 17.063 11.9219 17.5766 10.4193 17.7042L10.4082 17.7052L10.4082 17.7051C8.2108 17.8526 6.03716 17.1768 4.31071 15.8094C2.58426 14.442 1.42866 12.4809 1.06901 10.3081C0.709351 8.13529 1.1714 5.90641 2.36516 4.05564C3.55891 2.20486 5.39887 0.864739 7.52662 0.29632C7.76562 0.232473 8.01985 0.314718 8.17616 0.506454ZM6.58445 1.97315C5.29984 2.57562 4.20058 3.52977 3.4218 4.73718C2.39738 6.32543 2.00086 8.23815 2.3095 10.1028C2.61814 11.9674 3.60983 13.6503 5.09139 14.8237C6.57152 15.9961 8.43467 16.576 10.3185 16.4509C11.6032 16.3408 12.8377 15.9012 13.9028 15.1744C14.6027 14.6968 15.2138 14.1059 15.7126 13.4288C14.1656 13.544 12.615 13.2512 11.216 12.5792C9.79888 11.8985 8.58826 10.8531 7.70832 9.55021C6.82837 8.24736 6.31075 6.73392 6.20854 5.16508C6.13804 4.08303 6.2669 3.00147 6.58445 1.97315Z" fill="#161616"/>
</svg>
