
<svg width="256" height="256" viewBox="0 0 256 256" fill="none" xmlns="http://www.w3.org/2000/svg">
<path d="M107.793 53.8937C107.793 83.6591 83.6652 107.787 53.9014 107.787C24.1367 107.787 0 83.6591 0 53.8937C0 24.1284 24.1269 0 53.9014 0C83.6554 0 107.793 24.1284 107.793 53.8937Z" fill="white"/>
<path d="M206.611 107.602C234.269 105.314 255.999 82.1425 255.999 53.8937C255.999 24.1284 231.873 0 202.108 0C172.344 0 148.216 24.1284 148.216 53.8937C148.216 53.8937 143.535 92.0953 121.261 114.526C100.902 135.029 54.5863 146.806 46.7712 148.679C20.3684 152.167 0 174.757 0 202.107C0 231.872 24.1367 256 53.9014 256C65.2401 256 75.7608 252.498 84.4413 246.517C115.311 230.079 142.835 232.83 173.662 247.889C181.918 253.03 191.666 256 202.108 256C231.873 256 255.999 231.872 255.999 202.107C255.999 172.341 231.873 148.212 202.108 148.212C180.559 148.212 161.964 160.86 153.341 179.138C149.137 184.945 141.276 192.987 129.979 192.987C120.029 192.987 113.81 191.017 110.273 189.294C114.74 179.05 125.212 157.854 141.478 141.473C159.243 123.583 193.478 111.686 206.611 107.602Z" fill="url(#paint0_linear_904_88371)"/>
<defs>
<linearGradient id="paint0_linear_904_88371" x1="128.361" y1="207.664" x2="195.446" y2="-0.718038" gradientUnits="userSpaceOnUse">
<stop stop-color="#088DB2"/>
<stop offset="1" stop-color="#32B8B2"/>
</linearGradient>
</defs>
</svg>
