<?xml version="1.0" encoding="UTF-8"?>
<svg id="Layer_2" data-name="Layer 2" xmlns="http://www.w3.org/2000/svg" xmlns:xlink="http://www.w3.org/1999/xlink" viewBox="0 0 413.87 413.87">
  <defs>
    <style>
      .cls-1 {
        clip-rule: evenodd;
      }

      .cls-1, .cls-2, .cls-3, .cls-4 {
        stroke-width: 0px;
      }

      .cls-1, .cls-3, .cls-5, .cls-4 {
        fill: #fff;
      }

      .cls-6 {
        clip-path: url(#clippath);
      }

      .cls-2 {
        fill: url(#linear-gradient);
      }

      .cls-7 {
        clip-path: url(#clippath-1);
      }

      .cls-3, .cls-5 {
        fill-rule: evenodd;
      }
    </style>
    <linearGradient id="linear-gradient" x1="353.26" y1="353.26" x2="60.61" y2="60.61" gradientUnits="userSpaceOnUse">
      <stop offset=".2" stop-color="#7500ff"/>
      <stop offset=".52" stop-color="#8600ff"/>
      <stop offset="1" stop-color="#a800ff"/>
    </linearGradient>
    <clipPath id="clippath">
      <path class="cls-1" d="M162.67,149.71h81.49c24.9,0,51.35-16.11,59.9-39.53l3.98-10.18h-140.14c-22.26,0-43.26,17.65-50.29,34.84l-11.81,30.84c11.01-7.38,33.24-15.96,56.86-15.96h0Z"/>
    </clipPath>
    <clipPath id="clippath-1">
      <path class="cls-1" d="M145.13,231.89l38.95.43c23.53.26,51.85-17.49,58.54-36.78l4.94-13.56-55.05-.6c-21.4-.23-67.64,9.64-77.78,38.82l-8.93,24.37c9.29-8.48,25.58-12.83,39.32-12.68h0Z"/>
    </clipPath>
  </defs>
  <g id="Layer_1-2" data-name="Layer 1">
    <circle class="cls-2" cx="206.93" cy="206.93" r="206.93"/>
    <g>
      <path class="cls-4" d="M191.19,264.73l-31.54-.09c-27.22-.08-49.21,21.92-49.14,49.14h0s31.54.09,31.54.09c27.22.08,49.21-21.92,49.14-49.14Z"/>
      <g>
        <path class="cls-5" d="M162.67,149.71h81.49c24.9,0,51.35-16.11,59.9-39.53l3.98-10.18h-140.14c-22.26,0-43.26,17.65-50.29,34.84l-11.81,30.84c11.01-7.38,33.24-15.96,56.86-15.96h0Z"/>
        <g class="cls-6">
          <polyline class="cls-3" points="82.09 125.08 101.78 117.31 148.56 197.28 128.85 205.07"/>
          <polyline class="cls-3" points="101.48 117.45 102.42 117.07 149.18 197.04 148.24 197.41"/>
          <polyline class="cls-3" points="102.1 117.18 103.03 116.81 149.82 196.8 148.86 197.17"/>
          <polyline class="cls-3" points="102.71 116.94 103.68 116.57 150.43 196.56 149.5 196.91"/>
          <polyline class="cls-3" points="103.36 116.7 104.29 116.33 151.05 196.29 150.11 196.66"/>
          <polyline class="cls-3" points="103.97 116.46 104.9 116.09 151.69 196.05 150.76 196.42"/>
          <polyline class="cls-3" points="104.61 116.19 105.55 115.82 152.31 195.81 151.37 196.18"/>
          <polyline class="cls-3" points="105.23 115.95 106.16 115.58 152.95 195.57 152.01 195.92"/>
          <polyline class="cls-3" points="105.87 115.71 106.8 115.34 153.56 195.3 152.63 195.68"/>
          <polyline class="cls-3" points="106.48 115.47 107.42 115.1 154.2 195.06 153.24 195.44"/>
          <polyline class="cls-3" points="107.1 115.21 108.06 114.83 154.82 194.82 153.88 195.19"/>
          <polyline class="cls-3" points="107.74 114.97 108.67 114.59 155.43 194.58 154.5 194.93"/>
          <polyline class="cls-3" points="108.35 114.72 109.29 114.35 156.07 194.32 155.14 194.69"/>
          <polyline class="cls-3" points="108.99 114.46 109.93 114.11 156.69 194.07 155.75 194.45"/>
          <polyline class="cls-3" points="109.61 114.22 110.54 113.85 157.33 193.83 156.37 194.21"/>
          <polyline class="cls-3" points="110.25 113.98 111.18 113.6 157.94 193.59 157.01 193.94"/>
          <polyline class="cls-3" points="110.86 113.74 111.8 113.36 158.56 193.33 157.62 193.7"/>
          <polyline class="cls-3" points="111.48 113.47 112.44 113.12 159.2 193.09 158.26 193.46"/>
          <polyline class="cls-3" points="112.12 113.23 113.05 112.86 159.81 192.85 158.88 193.22"/>
          <polyline class="cls-3" points="112.73 112.99 113.67 112.62 160.45 192.58 159.52 192.96"/>
          <polyline class="cls-3" points="113.37 112.75 114.31 112.38 161.07 192.34 160.13 192.71"/>
          <polyline class="cls-3" points="113.99 112.49 114.92 112.13 161.71 192.1 160.75 192.47"/>
          <polyline class="cls-3" points="114.6 112.24 115.57 111.87 162.32 191.86 161.39 192.23"/>
          <polyline class="cls-3" points="115.25 112 116.18 111.63 162.94 191.59 162 191.97"/>
          <polyline class="cls-3" points="115.86 111.76 116.8 111.39 163.58 191.35 162.65 191.73"/>
          <polyline class="cls-3" points="116.5 111.5 117.44 111.15 164.2 191.11 163.26 191.48"/>
          <polyline class="cls-3" points="117.12 111.26 118.05 110.88 164.84 190.87 163.9 191.24"/>
          <polyline class="cls-3" points="117.76 111.01 118.69 110.64 165.45 190.61 164.52 190.98"/>
          <polyline class="cls-3" points="118.37 110.77 119.31 110.4 166.09 190.37 165.13 190.74"/>
          <polyline class="cls-3" points="118.99 110.51 119.95 110.16 166.71 190.12 165.77 190.5"/>
          <polyline class="cls-3" points="119.63 110.27 120.56 109.89 167.32 189.88 166.39 190.26"/>
          <polyline class="cls-3" points="120.24 110.03 121.18 109.65 167.96 189.62 167.03 189.99"/>
          <polyline class="cls-3" points="120.88 109.79 121.82 109.41 168.58 189.38 167.64 189.75"/>
          <polyline class="cls-3" points="121.5 109.52 122.43 109.17 169.22 189.14 168.28 189.51"/>
          <polyline class="cls-3" points="122.14 109.28 123.07 108.91 169.83 188.89 168.9 189.27"/>
          <polyline class="cls-3" points="122.75 109.04 123.69 108.67 170.47 188.63 169.51 189"/>
          <polyline class="cls-3" points="123.37 108.8 124.33 108.42 171.09 188.39 170.15 188.76"/>
          <polyline class="cls-3" points="124.01 108.53 124.94 108.18 171.7 188.15 170.77 188.52"/>
          <polyline class="cls-3" points="124.62 108.29 125.56 107.92 172.34 187.91 171.41 188.28"/>
          <polyline class="cls-3" points="125.27 108.05 126.2 107.68 172.96 187.64 172.02 188.02"/>
          <polyline class="cls-3" points="125.88 107.81 126.81 107.44 173.6 187.4 172.64 187.77"/>
          <polyline class="cls-3" points="126.52 107.55 127.46 107.2 174.21 187.16 173.28 187.53"/>
          <polyline class="cls-3" points="127.14 107.3 128.07 106.93 174.83 186.92 173.89 187.29"/>
          <polyline class="cls-3" points="127.75 107.06 128.71 106.69 175.47 186.66 174.54 187.03"/>
          <polyline class="cls-3" points="128.39 106.82 129.33 106.45 176.09 186.41 175.15 186.79"/>
          <polyline class="cls-3" points="129.01 106.56 129.94 106.21 176.73 186.17 175.79 186.55"/>
          <polyline class="cls-3" points="129.65 106.32 130.58 105.94 177.34 185.93 176.41 186.3"/>
          <polyline class="cls-3" points="130.26 106.08 131.2 105.7 177.98 185.67 177.02 186.04"/>
          <polyline class="cls-3" points="130.9 105.83 131.84 105.46 178.6 185.43 177.66 185.8"/>
          <polyline class="cls-3" points="131.52 105.57 132.45 105.2 179.21 185.18 178.28 185.56"/>
          <polyline class="cls-3" points="132.13 105.33 133.07 104.96 179.85 184.94 178.92 185.32"/>
          <polyline class="cls-3" points="132.77 105.09 133.71 104.71 180.47 184.68 179.53 185.05"/>
          <polyline class="cls-3" points="133.39 104.85 134.32 104.47 181.11 184.44 180.17 184.81"/>
          <polyline class="cls-3" points="134.03 104.58 134.96 104.21 181.72 184.2 180.79 184.57"/>
          <polyline class="cls-3" points="134.64 104.34 135.58 103.97 182.36 183.96 181.4 184.33"/>
          <polyline class="cls-3" points="135.26 104.1 136.22 103.73 182.98 183.69 182.04 184.07"/>
          <polyline class="cls-3" points="135.9 103.86 136.83 103.49 183.59 183.45 182.66 183.82"/>
          <polyline class="cls-3" points="136.51 103.6 137.45 103.22 184.23 183.21 183.3 183.58"/>
          <polyline class="cls-3" points="137.16 103.35 138.09 102.98 184.85 182.97 183.91 183.32"/>
          <polyline class="cls-3" points="137.77 103.11 138.7 102.74 185.49 182.7 184.56 183.08"/>
          <polyline class="cls-3" points="138.41 102.87 139.35 102.5 186.1 182.46 185.17 182.84"/>
          <polyline class="cls-3" points="139.03 102.61 139.96 102.23 186.75 182.22 185.78 182.59"/>
          <polyline class="cls-3" points="139.64 102.37 140.6 101.99 187.36 181.98 186.43 182.33"/>
          <polyline class="cls-3" points="140.28 102.12 141.22 101.75 187.98 181.72 187.04 182.09"/>
          <polyline class="cls-3" points="140.9 101.88 141.83 101.51 188.62 181.48 187.68 181.85"/>
          <polyline class="cls-3" points="141.54 101.62 142.47 101.25 189.23 181.23 188.3 181.61"/>
          <polyline class="cls-3" points="142.15 101.38 143.09 101.01 189.87 180.99 188.94 181.34"/>
          <polyline class="cls-3" points="142.79 101.14 143.73 100.76 190.49 180.73 189.55 181.1"/>
          <polyline class="cls-3" points="143.41 100.9 144.34 100.52 191.1 180.49 190.17 180.86"/>
          <polyline class="cls-3" points="144.02 100.63 144.98 100.26 191.74 180.25 190.81 180.62"/>
          <polyline class="cls-3" points="144.66 100.39 145.6 100.02 192.36 180 191.42 180.36"/>
          <polyline class="cls-3" points="145.28 100.15 146.21 99.78 193 179.74 192.06 180.11"/>
          <polyline class="cls-3" points="145.92 99.91 146.85 99.53 193.61 179.5 192.68 179.87"/>
          <polyline class="cls-3" points="146.53 99.64 147.47 99.27 194.25 179.26 193.29 179.63"/>
          <polyline class="cls-3" points="147.17 99.4 148.11 99.03 194.87 179.02 193.93 179.37"/>
          <polyline class="cls-3" points="147.79 99.16 148.72 98.79 195.48 178.75 194.55 179.13"/>
          <polyline class="cls-3" points="148.4 98.92 149.37 98.55 196.12 178.51 195.19 178.88"/>
          <polyline class="cls-3" points="149.05 98.66 149.98 98.28 196.74 178.27 195.8 178.64"/>
          <polyline class="cls-3" points="149.66 98.41 150.6 98.04 197.38 178.03 196.45 178.38"/>
          <polyline class="cls-3" points="150.3 98.17 151.24 97.8 198 177.77 197.06 178.14"/>
          <polyline class="cls-3" points="150.92 97.93 151.85 97.56 198.64 177.52 197.67 177.9"/>
          <polyline class="cls-3" points="151.53 97.67 152.49 97.3 199.25 177.28 198.32 177.66"/>
          <polyline class="cls-3" points="152.17 97.43 153.11 97.05 199.87 177.04 198.93 177.39"/>
          <polyline class="cls-3" points="152.79 97.19 153.72 96.81 200.51 176.78 199.57 177.15"/>
          <polyline class="cls-3" points="153.43 96.94 154.36 96.57 201.12 176.54 200.19 176.91"/>
          <polyline class="cls-3" points="154.04 96.68 154.98 96.31 201.76 176.29 200.83 176.67"/>
          <polyline class="cls-3" points="154.68 96.44 155.62 96.07 202.38 176.05 201.44 176.4"/>
          <polyline class="cls-3" points="155.3 96.2 156.23 95.82 203.02 175.79 202.06 176.16"/>
          <polyline class="cls-3" points="155.91 95.93 156.87 95.58 203.63 175.55 202.7 175.92"/>
          <polyline class="cls-3" points="156.55 95.69 157.49 95.32 204.25 175.31 203.31 175.68"/>
          <polyline class="cls-3" points="157.17 95.45 158.1 95.08 204.89 175.07 203.95 175.42"/>
          <polyline class="cls-3" points="157.81 95.21 158.74 94.84 205.5 174.8 204.57 175.18"/>
          <polyline class="cls-3" points="158.42 94.95 159.36 94.6 206.14 174.56 205.21 174.93"/>
          <polyline class="cls-3" points="159.07 94.71 160 94.33 206.76 174.32 205.82 174.69"/>
          <polyline class="cls-3" points="159.68 94.46 160.61 94.09 207.4 174.06 206.44 174.43"/>
          <polyline class="cls-3" points="160.29 94.22 161.26 93.85 208.01 173.81 207.08 174.19"/>
          <polyline class="cls-3" points="160.94 93.96 161.87 93.61 208.63 173.57 207.69 173.95"/>
          <polyline class="cls-3" points="161.55 93.72 162.49 93.34 209.27 173.33 208.34 173.7"/>
          <polyline class="cls-3" points="162.19 93.48 163.13 93.1 209.89 173.07 208.95 173.44"/>
          <polyline class="cls-3" points="162.81 93.23 163.74 92.86 210.53 172.83 209.56 173.2"/>
          <polyline class="cls-3" points="163.45 92.97 164.38 92.62 211.14 172.59 210.21 172.96"/>
          <polyline class="cls-3" points="164.06 92.73 165 92.36 211.76 172.34 210.82 172.72"/>
          <polyline class="cls-3" points="164.68 92.49 165.64 92.12 212.4 172.08 211.46 172.45"/>
          <polyline class="cls-3" points="165.32 92.25 166.25 91.87 213.01 171.84 212.08 172.21"/>
          <polyline class="cls-3" points="165.93 91.98 166.87 91.63 213.65 171.6 212.72 171.97"/>
          <polyline class="cls-3" points="166.57 91.74 167.51 91.37 214.27 171.36 213.33 171.73"/>
          <polyline class="cls-3" points="167.19 91.5 168.12 91.13 214.91 171.09 213.95 171.47"/>
          <polyline class="cls-3" points="167.83 91.26 168.76 90.89 215.52 170.85 214.59 171.22"/>
          <polyline class="cls-3" points="168.44 91 169.38 90.64 216.14 170.61 215.2 170.98"/>
          <polyline class="cls-3" points="169.06 90.75 169.99 90.38 216.78 170.37 215.84 170.74"/>
          <polyline class="cls-3" points="169.7 90.51 170.63 90.14 217.39 170.1 216.46 170.48"/>
          <polyline class="cls-3" points="170.31 90.27 171.25 89.9 218.03 169.86 217.1 170.24"/>
          <polyline class="cls-3" points="170.96 90.01 171.89 89.66 218.65 169.62 217.71 170"/>
          <polyline class="cls-3" points="171.57 89.77 172.5 89.39 219.29 169.38 218.33 169.75"/>
          <polyline class="cls-3" points="172.18 89.53 173.15 89.15 219.9 169.12 218.97 169.49"/>
          <polyline class="cls-3" points="172.83 89.28 173.76 88.91 220.52 168.88 219.58 169.25"/>
          <polyline class="cls-3" points="173.44 89.02 174.38 88.67 221.16 168.63 220.23 169.01"/>
          <polyline class="cls-3" points="174.08 88.78 175.02 88.41 221.78 168.39 220.84 168.77"/>
          <polyline class="cls-3" points="174.7 88.54 175.63 88.16 222.42 168.13 221.48 168.5"/>
          <polyline class="cls-3" points="175.34 88.3 176.27 87.92 223.03 167.89 222.1 168.26"/>
          <polyline class="cls-3" points="175.95 88.03 176.89 87.68 223.67 167.65 222.71 168.02"/>
          <polyline class="cls-3" points="176.57 87.79 177.53 87.42 224.29 167.4 223.35 167.78"/>
          <polyline class="cls-3" points="177.21 87.55 178.14 87.18 224.9 167.14 223.97 167.51"/>
          <polyline class="cls-3" points="177.82 87.31 178.76 86.93 225.54 166.9 224.61 167.27"/>
          <polyline class="cls-3" points="178.46 87.04 179.4 86.67 226.16 166.66 225.22 167.03"/>
          <polyline class="cls-3" points="179.08 86.8 180.01 86.43 226.8 166.42 225.86 166.79"/>
          <polyline class="cls-3" points="179.72 86.56 180.65 86.19 227.41 166.15 226.48 166.53"/>
          <polyline class="cls-3" points="180.33 86.32 181.27 85.95 228.03 165.91 227.09 166.29"/>
          <polyline class="cls-3" points="180.95 86.06 181.91 85.68 228.67 165.67 227.73 166.04"/>
          <polyline class="cls-3" points="181.59 85.82 182.52 85.44 229.28 165.43 228.35 165.8"/>
          <polyline class="cls-3" points="182.2 85.57 183.14 85.2 229.92 165.17 228.99 165.54"/>
          <polyline class="cls-3" points="182.85 85.33 183.78 84.96 230.54 164.92 229.6 165.3"/>
          <polyline class="cls-3" points="183.46 85.07 184.39 84.7 231.18 164.68 230.22 165.06"/>
          <polyline class="cls-3" points="184.1 84.83 185.04 84.45 231.8 164.44 230.86 164.79"/>
          <polyline class="cls-3" points="184.72 84.59 185.65 84.21 232.41 164.18 231.47 164.55"/>
          <polyline class="cls-3" points="185.33 84.34 186.29 83.97 233.05 163.94 232.12 164.31"/>
          <polyline class="cls-3" points="185.97 84.08 186.91 83.71 233.67 163.7 232.73 164.07"/>
          <polyline class="cls-3" points="186.59 83.84 187.52 83.47 234.31 163.45 233.37 163.81"/>
          <polyline class="cls-3" points="187.23 83.6 188.16 83.23 234.92 163.19 233.99 163.56"/>
          <polyline class="cls-3" points="187.84 83.36 188.78 82.98 235.56 162.95 234.6 163.32"/>
          <polyline class="cls-3" points="188.46 83.09 189.42 82.72 236.18 162.71 235.24 163.08"/>
          <polyline class="cls-3" points="189.1 82.85 190.03 82.48 236.79 162.47 235.86 162.82"/>
          <polyline class="cls-3" points="189.71 82.61 190.65 82.24 237.43 162.2 236.5 162.58"/>
          <polyline class="cls-3" points="190.35 82.37 191.29 82 238.05 161.96 237.11 162.33"/>
          <polyline class="cls-3" points="190.97 82.11 191.9 81.73 238.69 161.72 237.75 162.09"/>
          <polyline class="cls-3" points="191.61 81.86 192.54 81.49 239.3 161.48 238.37 161.83"/>
          <polyline class="cls-3" points="192.22 81.62 193.16 81.25 239.94 161.21 238.98 161.59"/>
          <polyline class="cls-3" points="192.84 81.38 193.8 81.01 240.56 160.97 239.62 161.35"/>
          <polyline class="cls-3" points="193.48 81.12 194.41 80.74 241.17 160.73 240.24 161.11"/>
          <polyline class="cls-3" points="194.09 80.88 195.03 80.5 241.81 160.49 240.88 160.84"/>
          <polyline class="cls-3" points="194.74 80.64 195.67 80.26 242.43 160.23 241.49 160.6"/>
          <polyline class="cls-3" points="195.35 80.39 196.29 80.02 243.07 159.99 242.14 160.36"/>
          <polyline class="cls-3" points="195.99 80.13 196.93 79.76 243.69 159.74 242.75 160.12"/>
          <polyline class="cls-3" points="196.61 79.89 197.54 79.52 244.33 159.5 243.36 159.85"/>
          <polyline class="cls-3" points="197.22 79.65 198.18 79.27 244.94 159.24 244.01 159.61"/>
          <polyline class="cls-3" points="197.86 79.41 198.8 79.03 245.56 159 244.62 159.37"/>
          <polyline class="cls-3" points="198.48 79.14 199.41 78.77 246.2 158.76 245.26 159.13"/>
          <polyline class="cls-3" points="199.12 78.9 200.05 78.53 246.81 158.52 245.88 158.87"/>
          <polyline class="cls-3" points="199.73 78.66 200.67 78.29 247.45 158.25 246.49 158.62"/>
          <polyline class="cls-3" points="200.37 78.42 201.31 78.04 248.07 158.01 247.13 158.38"/>
          <polyline class="cls-3" points="200.99 78.15 201.92 77.78 248.68 157.77 247.75 158.14"/>
          <polyline class="cls-3" points="201.6 77.91 202.56 77.54 249.32 157.53 248.39 157.88"/>
          <polyline class="cls-3" points="202.24 77.67 203.18 77.3 249.94 157.26 249 157.64"/>
          <polyline class="cls-3" points="202.86 77.41 203.79 77.06 250.58 157.02 249.64 157.4"/>
          <polyline class="cls-3" points="203.5 77.17 204.43 76.79 251.19 156.78 250.26 157.15"/>
          <polyline class="cls-3" points="204.11 76.93 205.05 76.55 251.83 156.54 250.87 156.89"/>
          <polyline class="cls-3" points="204.76 76.68 205.69 76.31 252.45 156.28 251.51 156.65"/>
          <polyline class="cls-3" points="205.37 76.42 206.3 76.07 253.06 156.03 252.13 156.41"/>
          <polyline class="cls-3" points="205.98 76.18 206.92 75.81 253.7 155.79 252.77 156.17"/>
          <polyline class="cls-3" points="206.63 75.94 207.56 75.56 254.32 155.53 253.38 155.9"/>
          <polyline class="cls-3" points="207.24 75.7 208.18 75.32 254.96 155.29 254.03 155.66"/>
          <polyline class="cls-3" points="207.88 75.43 208.82 75.08 255.58 155.05 254.64 155.42"/>
          <polyline class="cls-3" points="208.5 75.19 209.43 74.82 256.22 154.81 255.25 155.18"/>
          <polyline class="cls-3" points="209.11 74.95 210.07 74.58 256.83 154.54 255.9 154.92"/>
          <polyline class="cls-3" points="209.75 74.71 210.69 74.34 257.45 154.3 256.51 154.67"/>
          <polyline class="cls-3" points="210.37 74.45 211.3 74.09 258.09 154.06 257.15 154.43"/>
          <polyline class="cls-3" points="211.01 74.2 211.94 73.83 258.7 153.82 257.77 154.19"/>
          <polyline class="cls-3" points="211.62 73.96 212.56 73.59 259.34 153.55 258.41 153.93"/>
          <polyline class="cls-3" points="212.26 73.72 213.2 73.35 259.96 153.31 259.02 153.69"/>
          <polyline class="cls-3" points="212.88 73.46 213.81 73.11 260.6 153.07 259.64 153.44"/>
          <polyline class="cls-3" points="213.49 73.22 214.45 72.84 261.21 152.83 260.28 153.2"/>
          <polyline class="cls-3" points="214.13 72.97 215.07 72.6 261.83 152.57 260.89 152.94"/>
          <polyline class="cls-3" points="214.75 72.73 215.68 72.36 262.47 152.33 261.53 152.7"/>
          <polyline class="cls-3" points="215.39 72.47 216.32 72.12 263.08 152.08 262.15 152.46"/>
          <polyline class="cls-3" points="216 72.23 216.94 71.86 263.72 151.84 262.79 152.22"/>
          <polyline class="cls-3" points="216.65 71.99 217.58 71.61 264.34 151.58 263.4 151.95"/>
          <polyline class="cls-3" points="217.26 71.75 218.19 71.37 264.95 151.34 264.02 151.71"/>
          <polyline class="cls-3" points="217.87 71.48 218.84 71.13 265.59 151.1 264.66 151.47"/>
          <polyline class="cls-3" points="218.52 71.24 219.45 70.87 266.21 150.85 265.27 151.23"/>
          <polyline class="cls-3" points="219.13 71 220.07 70.63 266.85 150.59 265.92 150.96"/>
          <polyline class="cls-3" points="219.77 70.76 220.71 70.38 267.47 150.35 266.53 150.72"/>
          <polyline class="cls-3" points="220.39 70.49 221.32 70.14 268.11 150.11 267.14 150.48"/>
          <polyline class="cls-3" points="221.03 70.25 221.96 69.88 268.72 149.87 267.79 150.24"/>
          <polyline class="cls-3" points="221.64 70.01 222.58 69.64 269.34 149.6 268.4 149.98"/>
          <polyline class="cls-3" points="222.26 69.77 223.22 69.4 269.98 149.36 269.04 149.73"/>
          <polyline class="cls-3" points="222.9 69.51 223.83 69.16 270.59 149.12 269.66 149.49"/>
          <polyline class="cls-3" points="223.51 69.26 224.45 68.89 271.23 148.88 270.3 149.25"/>
          <polyline class="cls-3" points="224.15 69.02 225.09 68.65 271.85 148.62 270.91 148.99"/>
          <polyline class="cls-3" points="224.77 68.78 225.7 68.41 272.49 148.37 271.53 148.75"/>
          <polyline class="cls-3" points="225.38 68.52 226.34 68.15 273.1 148.13 272.17 148.51"/>
          <polyline class="cls-3" points="226.02 68.28 226.96 67.9 273.72 147.89 272.78 148.26"/>
          <polyline class="cls-3" points="226.64 68.04 227.57 67.66 274.36 147.63 273.42 148"/>
          <polyline class="cls-3" points="227.28 67.79 228.21 67.42 274.97 147.39 274.04 147.76"/>
          <polyline class="cls-3" points="227.89 67.53 228.83 67.16 275.61 147.14 274.68 147.52"/>
          <polyline class="cls-3" points="228.54 67.29 229.47 66.92 276.23 146.9 275.29 147.28"/>
          <polyline class="cls-3" points="229.15 67.05 230.08 66.67 276.87 146.64 275.91 147.01"/>
          <polyline class="cls-3" points="229.76 66.81 230.73 66.43 277.49 146.4 276.55 146.77"/>
          <polyline class="cls-3" points="230.41 66.54 231.34 66.17 278.1 146.16 277.16 146.53"/>
          <polyline class="cls-3" points="231.02 66.3 231.96 65.93 278.74 145.92 277.81 146.29"/>
          <polyline class="cls-3" points="231.66 66.06 232.6 65.69 279.36 145.65 278.42 146.03"/>
          <polyline class="cls-3" points="232.28 65.82 233.21 65.45 280 145.41 279.06 145.78"/>
          <polyline class="cls-3" points="232.92 65.56 233.85 65.18 280.61 145.17 279.68 145.54"/>
          <polyline class="cls-3" points="233.53 65.31 234.47 64.94 281.25 144.93 280.29 145.28"/>
          <polyline class="cls-3" points="234.15 65.07 235.11 64.7 281.87 144.66 280.93 145.04"/>
          <polyline class="cls-3" points="234.79 64.83 235.72 64.46 282.48 144.42 281.55 144.8"/>
          <polyline class="cls-3" points="235.4 64.57 236.34 64.19 283.12 144.18 282.19 144.55"/>
          <polyline class="cls-3" points="236.04 64.33 236.98 63.95 283.74 143.94 282.8 144.29"/>
          <polyline class="cls-3" points="236.66 64.08 237.59 63.71 284.38 143.68 283.42 144.05"/>
          <polyline class="cls-3" points="237.3 63.84 238.23 63.47 284.99 143.44 284.06 143.81"/>
          <polyline class="cls-3" points="237.91 63.58 238.85 63.21 285.61 143.19 284.67 143.57"/>
          <polyline class="cls-3" points="238.53 63.34 239.49 62.97 286.25 142.95 285.31 143.3"/>
          <polyline class="cls-3" points="239.17 63.1 240.1 62.72 286.86 142.69 285.93 143.06"/>
          <polyline class="cls-3" points="239.78 62.86 240.72 62.48 287.5 142.45 286.57 142.82"/>
          <polyline class="cls-3" points="240.43 62.59 241.36 62.22 288.12 142.21 287.18 142.58"/>
          <polyline class="cls-3" points="241.04 62.35 241.98 61.98 288.76 141.96 287.8 142.32"/>
          <polyline class="cls-3" points="241.68 62.11 242.62 61.74 289.38 141.7 288.44 142.07"/>
          <polyline class="cls-3" points="242.3 61.87 243.23 61.49 289.99 141.46 289.05 141.83"/>
          <polyline class="cls-3" points="242.91 61.6 243.85 61.23 290.63 141.22 289.7 141.59"/>
          <polyline class="cls-3" points="243.55 61.36 244.49 60.99 291.25 140.98 290.31 141.33"/>
          <polyline class="cls-3" points="244.17 61.12 245.1 60.75 291.89 140.71 290.95 141.09"/>
          <polyline class="cls-3" points="244.81 60.88 245.74 60.51 292.5 140.47 291.57 140.85"/>
          <polyline class="cls-3" points="245.42 60.62 246.36 60.24 293.14 140.23 292.18 140.6"/>
          <polyline class="cls-3" points="246.04 60.37 247 60 293.76 139.99 292.82 140.34"/>
          <polyline class="cls-3" points="246.68 60.13 247.61 59.76 294.37 139.73 293.44 140.1"/>
          <polyline class="cls-3" points="247.29 59.89 248.23 59.52 295.01 139.48 294.08 139.86"/>
          <polyline class="cls-3" points="247.93 59.63 248.87 59.26 295.63 139.24 294.69 139.62"/>
          <polyline class="cls-3" points="248.55 59.39 249.48 59.01 296.27 139 295.33 139.35"/>
          <polyline class="cls-3" points="249.19 59.15 250.12 58.77 296.88 138.74 295.95 139.11"/>
          <polyline class="cls-3" points="249.8 58.9 250.74 58.53 297.52 138.5 296.56 138.87"/>
          <polyline class="cls-3" points="250.42 58.64 251.38 58.27 298.14 138.25 297.2 138.63"/>
          <polyline class="cls-3" points="251.06 58.4 251.99 58.03 298.75 138.01 297.82 138.36"/>
          <polyline class="cls-3" points="251.67 58.16 252.61 57.78 299.39 137.75 298.46 138.12"/>
          <polyline class="cls-3" points="252.32 57.89 253.25 57.54 300.01 137.51 299.07 137.88"/>
          <polyline class="cls-3" points="252.93 57.65 253.87 57.28 300.65 137.27 299.72 137.64"/>
          <polyline class="cls-3" points="253.57 57.41 254.51 57.04 301.27 137.03 300.33 137.38"/>
          <polyline class="cls-3" points="254.19 57.17 255.12 56.8 301.88 136.76 300.94 137.14"/>
          <polyline class="cls-3" points="254.8 56.91 255.76 56.56 302.52 136.52 301.59 136.89"/>
          <polyline class="cls-3" points="255.44 56.67 256.38 56.29 303.14 136.28 302.2 136.65"/>
          <polyline class="cls-3" points="256.06 56.42 256.99 56.05 303.78 136.02 302.84 136.39"/>
          <polyline class="cls-3" points="256.7 56.18 257.63 55.81 304.39 135.77 303.46 136.15"/>
          <polyline class="cls-3" points="257.31 55.92 258.25 55.57 305.03 135.53 304.07 135.91"/>
          <polyline class="cls-3" points="257.95 55.68 258.89 55.3 305.65 135.29 304.71 135.66"/>
          <polyline class="cls-3" points="258.57 55.44 259.5 55.06 306.26 135.03 305.33 135.4"/>
          <polyline class="cls-3" points="259.18 55.19 260.14 54.82 306.9 134.79 305.97 135.16"/>
          <polyline class="cls-3" points="259.82 54.93 260.76 54.58 307.52 134.55 306.58 134.92"/>
          <polyline class="cls-3" points="260.44 54.69 277.59 47.93 324.35 127.89 307.22 134.68"/>
        </g>
      </g>
    </g>
    <g>
      <path class="cls-5" d="M145.13,231.89l38.95.43c23.53.26,51.85-17.49,58.54-36.78l4.94-13.56-55.05-.6c-21.4-.23-67.64,9.64-77.78,38.82l-8.93,24.37c9.29-8.48,25.58-12.83,39.32-12.68h0Z"/>
      <g class="cls-7">
        <polyline class="cls-3" points="136.93 281.82 137.1 281.97 261.03 198.1 260.89 197.92"/>
        <polyline class="cls-3" points="137.26 282.18 136.74 281.57 260.7 197.69 261.22 198.31"/>
        <polyline class="cls-3" points="136.9 281.77 136.38 281.16 260.34 197.26 260.86 197.9"/>
        <polyline class="cls-3" points="136.57 281.36 136.05 280.73 260.01 196.85 260.53 197.49"/>
        <polyline class="cls-3" points="136.21 280.95 135.69 280.32 259.65 196.45 260.17 197.06"/>
        <polyline class="cls-3" points="135.88 280.52 135.35 279.91 259.31 196.04 259.81 196.65"/>
        <polyline class="cls-3" points="135.52 280.11 134.99 279.48 258.95 195.6 259.48 196.24"/>
        <polyline class="cls-3" points="135.16 279.71 134.66 279.07 258.59 195.2 259.12 195.81"/>
        <polyline class="cls-3" points="134.83 279.27 134.3 278.66 258.26 194.79 258.79 195.4"/>
        <polyline class="cls-3" points="134.47 278.87 133.97 278.25 257.9 194.36 258.43 194.99"/>
        <polyline class="cls-3" points="134.14 278.46 133.61 277.82 257.57 193.95 258.1 194.56"/>
        <polyline class="cls-3" points="133.78 278.02 133.25 277.41 257.21 193.54 257.74 194.15"/>
        <polyline class="cls-3" points="133.44 277.62 132.92 277 256.88 193.11 257.4 193.74"/>
        <polyline class="cls-3" points="133.08 277.21 132.56 276.57 256.52 192.7 257.04 193.34"/>
        <polyline class="cls-3" points="132.75 276.78 132.22 276.16 256.19 192.29 256.68 192.9"/>
        <polyline class="cls-3" points="132.39 276.37 131.86 275.76 255.83 191.86 256.35 192.5"/>
        <polyline class="cls-3" points="132.06 275.96 131.53 275.32 255.49 191.45 255.99 192.09"/>
        <polyline class="cls-3" points="131.7 275.55 131.17 274.92 255.13 191.04 255.66 191.65"/>
        <polyline class="cls-3" points="131.34 275.12 130.84 274.51 254.77 190.63 255.3 191.25"/>
        <polyline class="cls-3" points="131.01 274.71 130.48 274.07 254.44 190.2 254.97 190.84"/>
        <polyline class="cls-3" points="130.65 274.3 130.15 273.67 254.08 189.79 254.61 190.41"/>
        <polyline class="cls-3" points="130.31 273.87 129.79 273.26 253.75 189.39 254.28 190"/>
        <polyline class="cls-3" points="129.95 273.46 129.43 272.85 253.39 188.95 253.92 189.59"/>
        <polyline class="cls-3" points="129.62 273.05 129.1 272.42 253.06 188.55 253.58 189.16"/>
        <polyline class="cls-3" points="129.26 272.62 128.74 272.01 252.7 188.14 253.22 188.75"/>
        <polyline class="cls-3" points="128.93 272.21 128.4 271.6 252.37 187.7 252.86 188.34"/>
        <polyline class="cls-3" points="128.57 271.81 128.04 271.17 252.01 187.3 252.53 187.93"/>
        <polyline class="cls-3" points="128.24 271.37 127.71 270.76 251.67 186.89 252.17 187.5"/>
        <polyline class="cls-3" points="127.88 270.96 127.35 270.35 251.31 186.46 251.84 187.09"/>
        <polyline class="cls-3" points="127.52 270.56 127.02 269.92 250.95 186.05 251.48 186.68"/>
        <polyline class="cls-3" points="127.19 270.15 126.66 269.51 250.62 185.64 251.15 186.25"/>
        <polyline class="cls-3" points="126.83 269.72 126.33 269.1 250.26 185.23 250.79 185.84"/>
        <polyline class="cls-3" points="126.49 269.31 125.97 268.67 249.93 184.8 250.46 185.44"/>
        <polyline class="cls-3" points="126.13 268.9 125.61 268.26 249.57 184.39 250.1 185"/>
        <polyline class="cls-3" points="125.8 268.47 125.28 267.86 249.24 183.98 249.76 184.6"/>
        <polyline class="cls-3" points="125.44 268.06 124.92 267.45 248.88 183.55 249.4 184.19"/>
        <polyline class="cls-3" points="125.11 267.65 124.58 267.01 248.54 183.14 249.04 183.75"/>
        <polyline class="cls-3" points="124.75 267.22 124.22 266.61 248.18 182.73 248.71 183.35"/>
        <polyline class="cls-3" points="124.42 266.81 123.89 266.2 247.85 182.3 248.35 182.94"/>
        <polyline class="cls-3" points="124.06 266.4 123.53 265.77 247.49 181.89 248.02 182.53"/>
        <polyline class="cls-3" points="123.7 265.97 123.2 265.36 247.13 181.49 247.66 182.1"/>
        <polyline class="cls-3" points="123.37 265.56 122.84 264.95 246.8 181.05 247.33 181.69"/>
        <polyline class="cls-3" points="123.01 265.15 122.48 264.52 246.44 180.64 246.97 181.28"/>
        <polyline class="cls-3" points="122.67 264.72 122.15 264.11 246.11 180.24 246.63 180.85"/>
        <polyline class="cls-3" points="122.31 264.31 121.79 263.7 245.75 179.83 246.27 180.44"/>
        <polyline class="cls-3" points="121.98 263.91 121.46 263.27 245.42 179.4 245.91 180.03"/>
        <polyline class="cls-3" points="121.62 263.5 121.1 262.86 245.06 178.99 245.58 179.6"/>
        <polyline class="cls-3" points="121.29 263.06 120.76 262.45 244.72 178.58 245.22 179.19"/>
        <polyline class="cls-3" points="120.93 262.66 120.4 262.02 244.36 178.15 244.89 178.78"/>
        <polyline class="cls-3" points="120.57 262.25 120.07 261.61 244 177.74 244.53 178.35"/>
        <polyline class="cls-3" points="120.24 261.82 119.71 261.2 243.67 177.33 244.2 177.94"/>
        <polyline class="cls-3" points="119.88 261.41 119.38 260.8 243.31 176.9 243.84 177.54"/>
        <polyline class="cls-3" points="119.55 261 119.02 260.36 242.98 176.49 243.51 177.1"/>
        <polyline class="cls-3" points="119.19 260.57 118.66 259.95 242.62 176.08 243.15 176.69"/>
        <polyline class="cls-3" points="118.85 260.16 118.33 259.55 242.29 175.65 242.81 176.29"/>
        <polyline class="cls-3" points="118.49 259.75 117.97 259.11 241.93 175.24 242.45 175.88"/>
        <polyline class="cls-3" points="118.16 259.32 117.63 258.71 241.6 174.83 242.09 175.45"/>
        <polyline class="cls-3" points="117.8 258.91 117.27 258.3 241.24 174.4 241.76 175.04"/>
        <polyline class="cls-3" points="117.47 258.5 116.94 257.87 240.9 173.99 241.4 174.63"/>
        <polyline class="cls-3" points="117.11 258.09 116.58 257.46 240.54 173.59 241.07 174.2"/>
        <polyline class="cls-3" points="116.75 257.66 116.25 257.05 240.18 173.18 240.71 173.79"/>
        <polyline class="cls-3" points="116.42 257.25 115.89 256.62 239.85 172.74 240.38 173.38"/>
        <polyline class="cls-3" points="116.06 256.85 115.56 256.21 239.49 172.34 240.02 172.95"/>
        <polyline class="cls-3" points="115.72 256.41 115.2 255.8 239.16 171.93 239.69 172.54"/>
        <polyline class="cls-3" points="115.36 256 114.84 255.39 238.8 171.5 239.33 172.13"/>
        <polyline class="cls-3" points="115.03 255.6 114.51 254.96 238.47 171.09 238.99 171.7"/>
        <polyline class="cls-3" points="114.67 255.16 114.15 254.55 238.11 170.68 238.63 171.29"/>
        <polyline class="cls-3" points="114.34 254.76 113.81 254.14 237.78 170.25 238.27 170.88"/>
        <polyline class="cls-3" points="113.98 254.35 113.45 253.71 237.42 169.84 237.94 170.48"/>
        <polyline class="cls-3" points="113.65 253.92 113.12 253.3 237.08 169.43 237.58 170.04"/>
        <polyline class="cls-3" points="113.29 253.51 112.76 252.9 236.72 169 237.25 169.63"/>
        <polyline class="cls-3" points="112.93 253.1 112.43 252.46 236.36 168.59 236.89 169.23"/>
        <polyline class="cls-3" points="112.6 252.69 112.07 252.05 236.03 168.18 236.56 168.79"/>
        <polyline class="cls-3" points="112.24 252.26 111.71 251.65 235.67 167.77 236.2 168.39"/>
        <polyline class="cls-3" points="111.9 251.85 111.38 251.21 235.34 167.34 235.87 167.98"/>
        <polyline class="cls-3" points="111.54 251.44 111.02 250.81 234.98 166.93 235.51 167.55"/>
        <polyline class="cls-3" points="111.21 251.01 110.69 250.4 234.65 166.53 235.17 167.14"/>
        <polyline class="cls-3" points="110.85 250.6 110.33 249.99 234.29 166.09 234.81 166.73"/>
        <polyline class="cls-3" points="110.52 250.19 109.99 249.56 233.95 165.68 234.45 166.3"/>
        <polyline class="cls-3" points="110.16 249.76 109.63 249.15 233.59 165.28 234.12 165.89"/>
        <polyline class="cls-3" points="109.8 249.35 109.3 248.74 233.23 164.84 233.76 165.48"/>
        <polyline class="cls-3" points="109.47 248.95 108.94 248.31 232.9 164.44 233.43 165.07"/>
        <polyline class="cls-3" points="109.11 248.51 108.61 247.9 232.54 164.03 233.07 164.64"/>
        <polyline class="cls-3" points="108.78 248.1 108.25 247.49 232.21 163.59 232.74 164.23"/>
        <polyline class="cls-3" points="108.42 247.7 107.89 247.06 231.85 163.19 232.38 163.82"/>
        <polyline class="cls-3" points="108.08 247.29 107.56 246.65 231.52 162.78 232.04 163.39"/>
        <polyline class="cls-3" points="107.72 246.86 107.2 246.24 231.16 162.37 231.68 162.98"/>
        <polyline class="cls-3" points="107.39 246.45 106.87 245.81 230.83 161.94 231.32 162.58"/>
        <polyline class="cls-3" points="107.03 246.04 106.51 245.4 230.47 161.53 230.99 162.14"/>
        <polyline class="cls-3" points="106.7 245.61 106.17 244.99 230.13 161.12 230.63 161.73"/>
        <polyline class="cls-3" points="106.34 245.2 105.81 244.59 229.77 160.69 230.3 161.33"/>
        <polyline class="cls-3" points="105.98 244.79 105.48 244.15 229.41 160.28 229.94 160.89"/>
        <polyline class="cls-3" points="105.65 244.36 105.12 243.75 229.08 159.87 229.61 160.49"/>
        <polyline class="cls-3" points="105.29 243.95 104.79 243.34 228.72 159.44 229.25 160.08"/>
        <polyline class="cls-3" points="104.96 243.54 104.43 242.91 228.39 159.03 228.92 159.67"/>
        <polyline class="cls-3" points="104.6 243.11 104.07 242.5 228.03 158.62 228.56 159.24"/>
        <polyline class="cls-3" points="104.26 242.7 103.74 242.09 227.7 158.19 228.22 158.83"/>
        <polyline class="cls-3" points="103.9 242.29 103.38 241.66 227.34 157.78 227.86 158.42"/>
        <polyline class="cls-3" points="103.57 241.89 103.04 241.25 227.01 157.38 227.5 157.99"/>
        <polyline class="cls-3" points="103.21 241.45 102.68 240.84 226.65 156.97 227.17 157.58"/>
        <polyline class="cls-3" points="102.88 241.04 102.35 240.41 226.31 156.54 226.81 157.17"/>
        <polyline class="cls-3" points="102.52 240.64 101.99 240 225.95 156.13 226.48 156.74"/>
        <polyline class="cls-3" points="102.16 240.2 101.66 239.59 225.59 155.72 226.12 156.33"/>
        <polyline class="cls-3" points="101.83 239.8 101.3 239.16 225.26 155.29 225.79 155.92"/>
        <polyline class="cls-3" points="101.47 239.39 100.97 238.75 224.9 154.88 225.43 155.49"/>
        <polyline class="cls-3" points="101.13 238.95 100.61 238.34 224.57 154.47 225.1 155.08"/>
        <polyline class="cls-3" points="100.77 238.55 100.25 237.93 224.21 154.04 224.74 154.67"/>
        <polyline class="cls-3" points="100.44 238.14 99.92 237.5 223.88 153.63 224.4 154.27"/>
        <polyline class="cls-3" points="100.08 237.71 99.56 237.09 223.52 153.22 224.04 153.83"/>
        <polyline class="cls-3" points="99.75 237.3 99.22 236.69 223.19 152.79 223.68 153.43"/>
        <polyline class="cls-3" points="99.39 236.89 98.86 236.25 222.83 152.38 223.35 153.02"/>
        <polyline class="cls-3" points="99.03 236.46 98.53 235.85 222.47 151.97 222.99 152.58"/>
        <polyline class="cls-3" points="98.7 236.05 98.17 235.44 222.13 151.54 222.66 152.18"/>
        <polyline class="cls-3" points="98.34 235.64 97.84 235 221.77 151.13 222.3 151.77"/>
        <polyline class="cls-3" points="98.01 235.23 97.48 234.6 221.44 150.72 221.97 151.34"/>
        <polyline class="cls-3" points="97.65 234.8 97.12 234.19 221.08 150.32 221.61 150.93"/>
        <polyline class="cls-3" points="97.31 234.39 96.79 233.76 220.75 149.88 221.28 150.52"/>
        <polyline class="cls-3" points="96.95 233.98 96.43 233.35 220.39 149.48 220.92 150.09"/>
        <polyline class="cls-3" points="96.62 233.55 96.1 232.94 220.06 149.07 220.56 149.68"/>
        <polyline class="cls-3" points="96.26 233.14 95.74 232.53 219.7 148.63 220.22 149.27"/>
        <polyline class="cls-3" points="95.93 232.74 95.4 232.1 219.36 148.23 219.86 148.84"/>
        <polyline class="cls-3" points="95.57 232.3 95.04 231.69 219 147.82 219.53 148.43"/>
        <polyline class="cls-3" points="95.21 231.89 94.71 231.28 218.64 147.39 219.17 148.02"/>
        <polyline class="cls-3" points="94.88 231.49 94.35 230.85 218.31 146.98 218.84 147.62"/>
        <polyline class="cls-3" points="94.52 231.05 94.02 230.44 217.95 146.57 218.48 147.18"/>
        <polyline class="cls-3" points="94.19 230.65 93.66 230.03 217.62 146.14 218.15 146.77"/>
        <polyline class="cls-3" points="93.83 230.24 93.3 229.6 217.26 145.73 217.79 146.37"/>
        <polyline class="cls-3" points="93.49 229.83 92.97 229.19 216.93 145.32 217.45 145.93"/>
        <polyline class="cls-3" points="93.13 229.4 92.61 228.79 216.57 144.91 217.09 145.53"/>
        <polyline class="cls-3" points="92.8 228.99 92.28 228.35 216.24 144.48 216.73 145.12"/>
        <polyline class="cls-3" points="92.44 228.58 91.92 227.94 215.88 144.07 216.4 144.68"/>
        <polyline class="cls-3" points="92.11 228.15 91.58 227.54 215.54 143.66 216.04 144.28"/>
        <polyline class="cls-3" points="91.75 227.74 91.22 227.13 215.18 143.23 215.71 143.87"/>
        <polyline class="cls-3" points="91.39 227.33 90.89 226.7 214.82 142.82 215.35 143.44"/>
        <polyline class="cls-3" points="91.06 226.9 90.53 226.29 214.49 142.42 215.02 143.03"/>
        <polyline class="cls-3" points="90.7 226.49 90.2 225.88 214.13 141.98 214.66 142.62"/>
        <polyline class="cls-3" points="90.37 226.08 89.84 225.45 213.8 141.58 214.33 142.21"/>
        <polyline class="cls-3" points="90.01 225.65 89.48 225.04 213.44 141.17 213.97 141.78"/>
        <polyline class="cls-3" points="89.67 225.24 89.15 224.63 213.11 140.73 213.63 141.37"/>
        <polyline class="cls-3" points="89.31 224.84 88.79 224.2 212.75 140.33 213.27 140.96"/>
        <polyline class="cls-3" points="88.98 224.43 88.45 223.79 212.42 139.92 212.91 140.53"/>
        <polyline class="cls-3" points="88.62 223.99 88.09 223.38 212.06 139.51 212.58 140.12"/>
        <polyline class="cls-3" points="88.29 223.59 87.76 222.95 211.72 139.08 212.22 139.71"/>
        <polyline class="cls-3" points="87.93 223.18 87.4 222.54 211.36 138.67 211.89 139.28"/>
        <polyline class="cls-3" points="87.57 222.75 87.07 222.13 211 138.26 211.53 138.87"/>
        <polyline class="cls-3" points="87.24 222.34 86.71 221.73 210.67 137.83 211.2 138.47"/>
        <polyline class="cls-3" points="86.88 221.93 86.35 221.29 210.31 137.42 210.84 138.03"/>
        <polyline class="cls-3" points="86.54 221.5 86.02 220.89 209.98 137.01 210.51 137.62"/>
        <polyline class="cls-3" points="86.18 221.09 85.66 220.48 209.62 136.58 210.15 137.22"/>
        <polyline class="cls-3" points="85.85 220.68 85.33 220.04 209.29 136.17 209.79 136.81"/>
        <polyline class="cls-3" points="85.49 220.25 84.97 219.64 208.93 135.76 209.45 136.38"/>
        <polyline class="cls-3" points="85.16 219.84 84.63 219.23 208.6 135.33 209.09 135.97"/>
        <polyline class="cls-3" points="84.8 219.43 84.27 218.8 208.24 134.92 208.76 135.56"/>
        <polyline class="cls-3" points="84.44 219.02 83.94 218.39 207.88 134.52 208.4 135.13"/>
        <polyline class="cls-3" points="84.11 218.59 84.11 218.59 208.07 134.72 208.07 134.72"/>
      </g>
    </g>
  </g>
</svg>