<svg width="18" height="18" viewBox="0 0 18 18" fill="none" xmlns="http://www.w3.org/2000/svg">
<path d="M9.27459 0.275391C9.57561 0.275391 9.81991 0.519697 9.81991 0.820717V1.91137C9.81991 2.056 9.76246 2.1947 9.66019 2.29697C9.55792 2.39924 9.41922 2.4567 9.27459 2.4567C9.12996 2.4567 8.99125 2.39924 8.88898 2.29697C8.78671 2.1947 8.72926 2.056 8.72926 1.91137V0.820717C8.72926 0.519697 8.97357 0.275391 9.27459 0.275391ZM9.29553 13.3719C11.6989 13.3719 13.6472 11.424 13.6472 9.02068C13.6472 6.61688 11.6989 4.66854 9.29553 4.66854C6.89173 4.66854 4.94339 6.61688 4.94339 9.02068C4.94339 11.424 6.89173 13.3724 9.29553 13.3724V13.3719ZM9.29553 12.2813C8.43064 12.2813 7.60118 11.9377 6.98962 11.3262C6.37805 10.7146 6.03448 9.88513 6.03448 9.02024C6.03448 8.15536 6.37805 7.3259 6.98962 6.71433C7.60118 6.10276 8.43064 5.75919 9.29553 5.75919C10.1604 5.75919 10.9899 6.10276 11.6014 6.71433C12.213 7.3259 12.5566 8.15536 12.5566 9.02024C12.5566 9.88513 12.213 10.7146 11.6014 11.3262C10.9899 11.9377 10.1604 12.2813 9.29553 12.2813ZM17.4549 9.54593C17.5995 9.54593 17.7382 9.48848 17.8405 9.38621C17.9428 9.28394 18.0002 9.14524 18.0002 9.00061C18.0002 8.85598 17.9428 8.71727 17.8405 8.61501C17.7382 8.51274 17.5995 8.45528 17.4549 8.45528H16.3643C16.2196 8.45528 16.0809 8.51274 15.9787 8.61501C15.8764 8.71727 15.8189 8.85598 15.8189 9.00061C15.8189 9.14524 15.8764 9.28394 15.9787 9.38621C16.0809 9.48848 16.2196 9.54593 16.3643 9.54593H17.4549ZM9.27459 15.5441C9.57561 15.5441 9.81991 15.7884 9.81991 16.0894V17.1801C9.81991 17.3247 9.76246 17.4634 9.66019 17.5657C9.55792 17.6679 9.41922 17.7254 9.27459 17.7254C9.12996 17.7254 8.99125 17.6679 8.88898 17.5657C8.78671 17.4634 8.72926 17.3247 8.72926 17.1801V16.0894C8.72926 15.7884 8.97357 15.5441 9.27459 15.5441ZM2.18578 9.5455C2.33041 9.5455 2.46912 9.48805 2.57139 9.38578C2.67366 9.28351 2.73111 9.1448 2.73111 9.00017C2.73111 8.85554 2.67366 8.71684 2.57139 8.61457C2.46912 8.5123 2.33041 8.45485 2.18578 8.45485H1.09513C0.950501 8.45485 0.811795 8.5123 0.709527 8.61457C0.607259 8.71684 0.549805 8.85554 0.549805 9.00017C0.549805 9.1448 0.607259 9.28351 0.709527 9.38578C0.811795 9.48805 0.950501 9.5455 1.09513 9.5455H2.18578ZM2.89078 2.61549C2.94142 2.56484 3.00154 2.52466 3.06771 2.49725C3.13389 2.46983 3.20481 2.45572 3.27644 2.45572C3.34806 2.45572 3.41898 2.46983 3.48516 2.49725C3.55133 2.52466 3.61145 2.56484 3.66209 2.61549L4.75274 3.70615C4.80339 3.75679 4.84356 3.81692 4.87097 3.88309C4.89838 3.94926 4.91249 4.02018 4.91249 4.0918C4.91249 4.16342 4.89838 4.23435 4.87097 4.30052C4.84356 4.36669 4.80339 4.42681 4.75274 4.47746C4.7021 4.5281 4.64197 4.56827 4.5758 4.59568C4.50963 4.62309 4.43871 4.6372 4.36709 4.6372C4.29546 4.6372 4.22454 4.62309 4.15837 4.59568C4.0922 4.56827 4.03208 4.5281 3.98143 4.47746L2.89078 3.3868C2.84013 3.33616 2.79995 3.27604 2.77253 3.20987C2.74512 3.1437 2.73101 3.07277 2.73101 3.00115C2.73101 2.92952 2.74512 2.8586 2.77253 2.79243C2.79995 2.72626 2.84013 2.66613 2.89078 2.61549ZM3.66209 15.3844C3.61144 15.4351 3.55132 15.4752 3.48515 15.5026C3.41898 15.5301 3.34806 15.5442 3.27644 15.5442C3.20481 15.5442 3.13389 15.5301 3.06772 15.5026C3.00155 15.4752 2.94143 15.4351 2.89078 15.3844C2.84014 15.3338 2.79996 15.2736 2.77255 15.2075C2.74514 15.1413 2.73104 15.0704 2.73104 14.9988C2.73104 14.9271 2.74514 14.8562 2.77255 14.79C2.79996 14.7239 2.84014 14.6638 2.89078 14.6131L3.98143 13.5225C4.03208 13.4718 4.0922 13.4316 4.15837 13.4042C4.22454 13.3768 4.29546 13.3627 4.36709 13.3627C4.43871 13.3627 4.50963 13.3768 4.5758 13.4042C4.64197 13.4316 4.7021 13.4718 4.75274 13.5225C4.80339 13.5731 4.84356 13.6332 4.87097 13.6994C4.89838 13.7656 4.91249 13.8365 4.91249 13.9081C4.91249 13.9797 4.89838 14.0507 4.87097 14.1168C4.84356 14.183 4.80339 14.2431 4.75274 14.2938L3.66209 15.3844ZM15.6593 2.61549C15.557 2.51333 15.4184 2.45594 15.2738 2.45594C15.1293 2.45594 14.9906 2.51333 14.8884 2.61549L13.7977 3.70615C13.6955 3.80843 13.638 3.94715 13.638 4.0918C13.638 4.23645 13.6955 4.37517 13.7977 4.47746C13.9 4.57974 14.0387 4.6372 14.1834 4.6372C14.328 4.6372 14.4668 4.57974 14.569 4.47746L15.6597 3.3868C15.7104 3.33616 15.7505 3.27604 15.7779 3.20987C15.8054 3.1437 15.8195 3.07277 15.8195 3.00115C15.8195 2.92952 15.8054 2.8586 15.7779 2.79243C15.7505 2.72626 15.7104 2.66613 15.6597 2.61549H15.6593ZM14.8884 15.3844C14.9907 15.4867 15.1294 15.5442 15.274 15.5442C15.4187 15.5442 15.5574 15.4867 15.6597 15.3844C15.762 15.2821 15.8194 15.1434 15.8194 14.9988C15.8194 14.8541 15.762 14.7154 15.6597 14.6131L14.569 13.5225C14.4668 13.4202 14.328 13.3627 14.1834 13.3627C14.0387 13.3627 13.9 13.4202 13.7977 13.5225C13.6955 13.6247 13.638 13.7635 13.638 13.9081C13.638 14.0528 13.6955 14.1915 13.7977 14.2938L14.8884 15.3844Z" fill="white"/>
</svg>
